# File created by Blade
# Date/Time:  Thu Jan 22 19:34:15 2015
# Frame Rate: 120.000 fps
#------------------------------------------------------
:FULLY-SPECIFIED
:DEGREES
723
root -13.775511 14.740956 -9.616062 22.719394 -27.736177 27.616043
RightUpLeg -127.182985 -24.929192 -6.154081
RightLeg 137.074345 -0.000000 -0.000000
RightFoot -45.325393 -9.882938 5.740743
RightToeBase -2.209884 -0.000000 0.000000
LeftUpLeg -13.871293 35.306861 25.776579
LeftLeg 6.969797 -0.000000 -0.000000
LeftFoot -5.721180 12.034858 -44.137359
LeftToeBase 19.083206 -0.000000 -0.000000
Spine 13.555869 9.559434 28.057726
RightShoulder -3.169842 0.958842 -12.229307
RightArm 14.153788 38.916690 77.737624
RightForeArm -23.233609 -0.000000 32.148868
RightHand 28.419092 -0.000000 -91.115487
RightHandThumb1 -24.326973 -0.000000 -32.862282
LeftShoulder -30.244420 -14.048086 62.409256
LeftArm 49.897690 -62.889991 -26.834161
LeftForeArm -9.050777 -0.000000 12.607428
LeftHand -0.093301 -0.000000 6.084993
LeftHandThumb1 -26.253704 0.000000 33.147579
Head -6.091804 31.893118 29.862741
724
root -13.764079 14.772911 -9.616953 22.690558 -27.766959 27.737201
RightUpLeg -127.145951 -24.981751 -6.265936
RightLeg 136.945310 -0.000000 -0.000000
RightFoot -45.313094 -9.896409 5.707692
RightToeBase -2.143870 -0.000000 0.000000
LeftUpLeg -13.855566 35.466110 25.520833
LeftLeg 6.730001 -0.000000 -0.000000
LeftFoot -5.521149 11.941507 -44.031602
LeftToeBase 19.003678 -0.000000 -0.000000
Spine 13.618175 9.593562 28.023578
RightShoulder -3.189495 0.983328 -12.240806
RightArm 14.175854 38.888838 77.628007
RightForeArm -23.142192 -0.000000 32.089296
RightHand 28.380582 -0.000000 -91.196270
RightHandThumb1 -24.326973 -0.000000 -32.862282
LeftShoulder -30.363232 -14.247340 62.579150
LeftArm 50.492433 -62.498768 -26.994466
LeftForeArm -8.610118 -0.000000 12.594253
LeftHand -0.132331 -0.000000 6.205010
LeftHandThumb1 -26.253704 0.000000 33.147579
Head -6.135429 32.132053 30.134783
725
root -13.755193 14.804005 -9.616197 22.653846 -27.795828 27.803659
RightUpLeg -127.058349 -25.007104 -6.345130
RightLeg 136.823014 -0.000000 -0.000000
RightFoot -45.301975 -9.902995 5.686704
RightToeBase -2.139170 -0.000000 0.000000
LeftUpLeg -13.777933 35.590387 25.351575
LeftLeg 6.487910 -0.000000 -0.000000
LeftFoot -5.365860 11.895387 -43.953337
LeftToeBase 18.963673 -0.000000 -0.000000
Spine 13.734274 9.583650 28.103425
RightShoulder -3.187675 1.063579 -12.338325
RightArm 14.159675 38.989237 77.623772
RightForeArm -23.211952 -0.000000 32.146157
RightHand 28.344161 -0.000000 -91.219771
RightHandThumb1 -24.326973 -0.000000 -32.862282
LeftShoulder -30.463261 -14.313166 62.611948
LeftArm 51.175511 -62.265795 -27.303620
LeftForeArm -8.099428 0.000000 12.647423
LeftHand -0.231101 -0.000000 6.318069
LeftHandThumb1 -26.253704 0.000000 33.147579
Head -6.130483 32.604692 30.211373
726
root -13.742460 14.829356 -9.616791 22.643120 -27.800556 27.894579
RightUpLeg -127.039374 -25.074196 -6.427191
RightLeg 136.718689 -0.000000 -0.000000
RightFoot -45.287677 -9.903013 5.671064
RightToeBase -2.056909 -0.000000 0.000000
LeftUpLeg -13.746620 35.672365 25.158570
LeftLeg 6.239709 -0.000000 -0.000000
LeftFoot -5.216872 11.852517 -43.845177
LeftToeBase 18.889503 -0.000000 -0.000000
Spine 13.711223 9.597225 28.094806
RightShoulder -3.107926 1.026870 -12.353545
RightArm 14.150009 39.093968 77.545145
RightForeArm -23.147256 -0.000000 32.152750
RightHand 28.352632 -0.000000 -91.231564
RightHandThumb1 -24.326973 -0.000000 -32.862282
LeftShoulder -30.404156 -14.294169 62.691591
LeftArm 51.710444 -62.117936 -27.500284
LeftForeArm -7.684815 0.000000 12.706444
LeftHand -0.348670 -0.000000 6.495689
LeftHandThumb1 -26.253704 0.000000 33.147579
Head -5.965530 32.640697 30.645020
727
root -13.730037 14.853898 -9.614170 22.600512 -27.809571 28.007423
RightUpLeg -126.997958 -25.156742 -6.542905
RightLeg 136.634039 -0.000000 -0.000000
RightFoot -45.261882 -9.896863 5.625230
RightToeBase -2.056558 -0.000000 0.000000
LeftUpLeg -13.689106 35.788033 24.944306
LeftLeg 5.969326 -0.000000 -0.000000
LeftFoot -5.034193 11.826891 -43.744108
LeftToeBase 18.859214 -0.000000 -0.000000
Spine 13.739927 9.627695 28.086406
RightShoulder -3.112854 1.049119 -12.380821
RightArm 14.114268 39.195713 77.481771
RightForeArm -23.151364 -0.000000 32.190467
RightHand 28.345325 -0.000000 -91.236511
RightHandThumb1 -24.326973 -0.000000 -32.862282
LeftShoulder -30.420670 -14.240989 62.646116
LeftArm 52.526326 -62.040552 -27.852918
LeftForeArm -7.280750 -0.000000 12.686181
LeftHand -0.366220 -0.000000 6.566618
LeftHandThumb1 -26.253704 0.000000 33.147579
Head -5.896345 32.805600 30.966420
728
root -13.718027 14.876579 -9.611701 22.569124 -27.838740 28.105894
RightUpLeg -126.966026 -25.204270 -6.652183
RightLeg 136.538251 -0.000000 -0.000000
RightFoot -45.270408 -9.888706 5.621380
RightToeBase -1.920152 -0.000000 0.000000
LeftUpLeg -13.633803 35.945536 24.741052
LeftLeg 5.730732 -0.000000 -0.000000
LeftFoot -4.824902 11.766346 -43.540997
LeftToeBase 18.723665 -0.000000 -0.000000
Spine 13.761667 9.652116 28.065540
RightShoulder -3.075893 1.075096 -12.395010
RightArm 14.069040 39.306459 77.405256
RightForeArm -23.189298 -0.000000 32.221870
RightHand 28.321025 -0.000000 -91.279129
RightHandThumb1 -24.326973 -0.000000 -32.862282
LeftShoulder -30.422448 -14.219576 62.661351
LeftArm 53.007888 -61.884298 -27.921674
LeftForeArm -7.034123 0.000000 12.726426
LeftHand -0.410892 -0.000000 6.697489
LeftHandThumb1 -26.253704 0.000000 33.147579
Head -5.812245 33.009364 31.303422
729
root -13.708209 14.897110 -9.610453 22.555799 -27.859193 28.155074
RightUpLeg -126.917991 -25.230071 -6.726532
RightLeg 136.444709 -0.000000 -0.000000
RightFoot -45.254146 -9.882947 5.609757
RightToeBase -1.947877 -0.000000 0.000000
LeftUpLeg -13.579722 36.083443 24.599977
LeftLeg 5.514772 -0.000000 -0.000000
LeftFoot -4.674288 11.740498 -43.435481
LeftToeBase 18.647773 -0.000000 -0.000000
Spine 13.803066 9.655557 28.082166
RightShoulder -3.049706 1.108431 -12.420957
RightArm 14.052419 39.369376 77.347825
RightForeArm -23.166241 -0.000000 32.221882
RightHand 28.339772 -0.000000 -91.258295
RightHandThumb1 -24.326973 -0.000000 -32.862282
LeftShoulder -30.467156 -14.280664 62.767979
LeftArm 53.470956 -61.691880 -28.081576
LeftForeArm -6.667412 -0.000000 12.834924
LeftHand -0.553988 -0.000000 6.797664
LeftHandThumb1 -26.253704 0.000000 33.147579
Head -5.714600 33.267361 31.676809
730
root -13.698458 14.915090 -9.608785 22.543368 -27.861067 28.198273
RightUpLeg -126.871103 -25.270410 -6.788735
RightLeg 136.372121 -0.000000 -0.000000
RightFoot -45.257408 -9.881024 5.596078
RightToeBase -1.894496 -0.000000 0.000000
LeftUpLeg -13.542821 36.183788 24.475339
LeftLeg 5.330034 -0.000000 -0.000000
LeftFoot -4.561243 11.720422 -43.312812
LeftToeBase 18.640992 -0.000000 -0.000000
Spine 13.832077 9.648400 28.098133
RightShoulder -3.032100 1.161651 -12.444362
RightArm 14.008261 39.402660 77.251350
RightForeArm -23.144624 -0.000000 32.185621
RightHand 28.376076 0.000000 -91.310736
RightHandThumb1 -24.326973 -0.000000 -32.862282
LeftShoulder -30.508066 -14.322956 62.881703
LeftArm 53.912734 -61.534065 -28.280697
LeftForeArm -6.159355 -0.000000 13.044608
LeftHand -0.754698 -0.000000 6.929010
LeftHandThumb1 -26.253704 0.000000 33.147579
Head -5.623254 33.454774 32.082300
